<svg width="400" height="150" viewBox="0 0 400 150" xmlns="http://www.w3.org/2000/svg">
<defs>
<style>
.title-darkbg { font: bold 24px sans-serif; fill: #FFFFFF; }
.subtitle-darkbg { font: 16px sans-serif; fill: #E0E0E0; } /* Örlítið dekkri hvítur fyrir undirtitil */
.data-darkbg { font: bold 12px monospace; fill: #4A90E2; }
</style>
</defs>

<rect width="400" height="150" fill="#283865ff"/>

<g transform="translate(10, 30)">
<path d="M 68.2,18.1 C 65.3,7.9, 56.2,0, 45,0 C 36.3,0, 28.8,5.1, 24.9,12.7 C 23.3,12.1, 21.7,11.8, 20,11.8 C 12.3,11.8, 6,18.1, 6,25.8 C 6,26.4, 6.1,27, 6.2,27.5 C 2.6,30.3, 0,34.7, 0,39.8 C 0,48.2, 6.7,55, 15,55 L 40,55" fill="#D0E1F9"/>
<path d="M 85,29.8 C 85,21.4, 78.3,14.7, 70,14.7 C 68.3,14.7, 66.7,15, 65.1,15.6 C 61.2,8, 53.7,2.9, 45,2.9 C 34.8,2.9, 26.2,9.8, 23.2,19.1 C 15.5,19.1, 9.2,25.4, 9.2,33.1 C 9.2,40.8, 15.5,47.1, 23.2,47.1 L 70,47.1 C 78.3,47.1, 85,40.4, 85,32.1" fill="#4A90E2"/>
</g>

<g class="data-darkbg">
<text x="35" y="110">10110</text>
<text x="50" y="125">0101</text>
<text x="75" y="115">110</text>
</g>

<text x="130" y="65" class="title-darkbg">Gagnavinafélagið</text>
<text x="130" y="90" class="subtitle-darkbg">#frelsumgögnin</text>
</svg>